<mxfile host="app.diagrams.net" modified="2020-12-06T06:50:14.086Z" agent="5.0 (X11; Linux x86_64) AppleWebKit/537.36 (KHTML, like Gecko) Chrome/85.0.4183.83 Safari/537.36" etag="FrxcmdIsfGUk1Ab6MmES" version="13.5.4" type="github">
  <diagram id="Lim0YgTXz2O0rFs0yIkb" name="webrtc">
    <mxGraphModel dx="1549" dy="580" grid="1" gridSize="10" guides="1" tooltips="1" connect="1" arrows="1" fold="1" page="1" pageScale="1" pageWidth="827" pageHeight="1169" math="0" shadow="0">
      <root>
        <mxCell id="0" />
        <mxCell id="1" parent="0" />
        <mxCell id="bV21DThOPWdY1BmrYom6-17" style="edgeStyle=orthogonalEdgeStyle;rounded=0;orthogonalLoop=1;jettySize=auto;html=1;fontSize=14;" edge="1" parent="1" source="bV21DThOPWdY1BmrYom6-1" target="bV21DThOPWdY1BmrYom6-10">
          <mxGeometry relative="1" as="geometry" />
        </mxCell>
        <mxCell id="bV21DThOPWdY1BmrYom6-18" style="edgeStyle=orthogonalEdgeStyle;rounded=0;orthogonalLoop=1;jettySize=auto;html=1;fontSize=14;" edge="1" parent="1" source="bV21DThOPWdY1BmrYom6-1" target="bV21DThOPWdY1BmrYom6-5">
          <mxGeometry relative="1" as="geometry" />
        </mxCell>
        <mxCell id="bV21DThOPWdY1BmrYom6-19" style="edgeStyle=orthogonalEdgeStyle;rounded=0;orthogonalLoop=1;jettySize=auto;html=1;fontSize=14;" edge="1" parent="1" source="bV21DThOPWdY1BmrYom6-1" target="bV21DThOPWdY1BmrYom6-13">
          <mxGeometry relative="1" as="geometry" />
        </mxCell>
        <mxCell id="bV21DThOPWdY1BmrYom6-20" style="edgeStyle=orthogonalEdgeStyle;rounded=0;orthogonalLoop=1;jettySize=auto;html=1;fontSize=14;" edge="1" parent="1" source="bV21DThOPWdY1BmrYom6-1" target="bV21DThOPWdY1BmrYom6-15">
          <mxGeometry relative="1" as="geometry" />
        </mxCell>
        <mxCell id="bV21DThOPWdY1BmrYom6-1" value="datachannel" style="rounded=0;whiteSpace=wrap;html=1;fontSize=14;fillColor=#dae8fc;strokeColor=#6c8ebf;" vertex="1" parent="1">
          <mxGeometry x="30" y="120" width="80" height="40" as="geometry" />
        </mxCell>
        <mxCell id="bV21DThOPWdY1BmrYom6-57" style="edgeStyle=orthogonalEdgeStyle;rounded=0;orthogonalLoop=1;jettySize=auto;html=1;fontSize=14;" edge="1" parent="1" source="bV21DThOPWdY1BmrYom6-2" target="bV21DThOPWdY1BmrYom6-5">
          <mxGeometry relative="1" as="geometry" />
        </mxCell>
        <mxCell id="bV21DThOPWdY1BmrYom6-58" style="edgeStyle=orthogonalEdgeStyle;rounded=0;orthogonalLoop=1;jettySize=auto;html=1;fontSize=14;" edge="1" parent="1" source="bV21DThOPWdY1BmrYom6-2" target="bV21DThOPWdY1BmrYom6-13">
          <mxGeometry relative="1" as="geometry" />
        </mxCell>
        <mxCell id="bV21DThOPWdY1BmrYom6-60" style="edgeStyle=orthogonalEdgeStyle;rounded=0;orthogonalLoop=1;jettySize=auto;html=1;fontSize=14;" edge="1" parent="1" source="bV21DThOPWdY1BmrYom6-2" target="bV21DThOPWdY1BmrYom6-59">
          <mxGeometry relative="1" as="geometry" />
        </mxCell>
        <mxCell id="bV21DThOPWdY1BmrYom6-61" style="edgeStyle=orthogonalEdgeStyle;rounded=0;orthogonalLoop=1;jettySize=auto;html=1;fontSize=14;" edge="1" parent="1" source="bV21DThOPWdY1BmrYom6-2" target="bV21DThOPWdY1BmrYom6-16">
          <mxGeometry relative="1" as="geometry" />
        </mxCell>
        <mxCell id="bV21DThOPWdY1BmrYom6-64" style="edgeStyle=orthogonalEdgeStyle;rounded=0;orthogonalLoop=1;jettySize=auto;html=1;fontSize=14;" edge="1" parent="1" source="bV21DThOPWdY1BmrYom6-2" target="bV21DThOPWdY1BmrYom6-63">
          <mxGeometry relative="1" as="geometry" />
        </mxCell>
        <mxCell id="bV21DThOPWdY1BmrYom6-65" style="edgeStyle=orthogonalEdgeStyle;rounded=0;orthogonalLoop=1;jettySize=auto;html=1;fontSize=14;" edge="1" parent="1" source="bV21DThOPWdY1BmrYom6-2" target="bV21DThOPWdY1BmrYom6-62">
          <mxGeometry relative="1" as="geometry" />
        </mxCell>
        <mxCell id="bV21DThOPWdY1BmrYom6-2" value="dtls" style="rounded=0;whiteSpace=wrap;html=1;fontSize=14;fillColor=#dae8fc;strokeColor=#6c8ebf;" vertex="1" parent="1">
          <mxGeometry x="470" y="420" width="80" height="40" as="geometry" />
        </mxCell>
        <mxCell id="bV21DThOPWdY1BmrYom6-36" style="edgeStyle=orthogonalEdgeStyle;rounded=0;orthogonalLoop=1;jettySize=auto;html=1;fontSize=14;" edge="1" parent="1" source="bV21DThOPWdY1BmrYom6-3" target="bV21DThOPWdY1BmrYom6-2">
          <mxGeometry relative="1" as="geometry" />
        </mxCell>
        <mxCell id="bV21DThOPWdY1BmrYom6-37" style="edgeStyle=orthogonalEdgeStyle;rounded=0;orthogonalLoop=1;jettySize=auto;html=1;fontSize=14;" edge="1" parent="1" source="bV21DThOPWdY1BmrYom6-3" target="bV21DThOPWdY1BmrYom6-5">
          <mxGeometry relative="1" as="geometry" />
        </mxCell>
        <mxCell id="bV21DThOPWdY1BmrYom6-38" style="edgeStyle=orthogonalEdgeStyle;rounded=0;orthogonalLoop=1;jettySize=auto;html=1;fontSize=14;" edge="1" parent="1" source="bV21DThOPWdY1BmrYom6-3" target="bV21DThOPWdY1BmrYom6-7">
          <mxGeometry relative="1" as="geometry" />
        </mxCell>
        <mxCell id="bV21DThOPWdY1BmrYom6-40" style="edgeStyle=orthogonalEdgeStyle;rounded=0;orthogonalLoop=1;jettySize=auto;html=1;fontSize=14;" edge="1" parent="1" source="bV21DThOPWdY1BmrYom6-3" target="bV21DThOPWdY1BmrYom6-39">
          <mxGeometry relative="1" as="geometry" />
        </mxCell>
        <mxCell id="bV21DThOPWdY1BmrYom6-42" style="edgeStyle=orthogonalEdgeStyle;rounded=0;orthogonalLoop=1;jettySize=auto;html=1;fontSize=14;" edge="1" parent="1" source="bV21DThOPWdY1BmrYom6-3" target="bV21DThOPWdY1BmrYom6-41">
          <mxGeometry relative="1" as="geometry" />
        </mxCell>
        <mxCell id="bV21DThOPWdY1BmrYom6-43" style="edgeStyle=orthogonalEdgeStyle;rounded=0;orthogonalLoop=1;jettySize=auto;html=1;fontSize=14;" edge="1" parent="1" source="bV21DThOPWdY1BmrYom6-3" target="bV21DThOPWdY1BmrYom6-13">
          <mxGeometry relative="1" as="geometry" />
        </mxCell>
        <mxCell id="bV21DThOPWdY1BmrYom6-45" style="edgeStyle=orthogonalEdgeStyle;rounded=0;orthogonalLoop=1;jettySize=auto;html=1;fontSize=14;" edge="1" parent="1" source="bV21DThOPWdY1BmrYom6-3" target="bV21DThOPWdY1BmrYom6-44">
          <mxGeometry relative="1" as="geometry" />
        </mxCell>
        <mxCell id="bV21DThOPWdY1BmrYom6-46" style="edgeStyle=orthogonalEdgeStyle;rounded=0;orthogonalLoop=1;jettySize=auto;html=1;fontSize=14;" edge="1" parent="1" source="bV21DThOPWdY1BmrYom6-3" target="bV21DThOPWdY1BmrYom6-15">
          <mxGeometry relative="1" as="geometry" />
        </mxCell>
        <mxCell id="bV21DThOPWdY1BmrYom6-47" style="edgeStyle=orthogonalEdgeStyle;rounded=0;orthogonalLoop=1;jettySize=auto;html=1;fontSize=14;" edge="1" parent="1" source="bV21DThOPWdY1BmrYom6-3" target="bV21DThOPWdY1BmrYom6-16">
          <mxGeometry relative="1" as="geometry" />
        </mxCell>
        <mxCell id="bV21DThOPWdY1BmrYom6-3" value="ice" style="rounded=0;whiteSpace=wrap;html=1;fontSize=14;fillColor=#dae8fc;strokeColor=#6c8ebf;" vertex="1" parent="1">
          <mxGeometry x="480" y="220" width="80" height="40" as="geometry" />
        </mxCell>
        <mxCell id="bV21DThOPWdY1BmrYom6-34" style="edgeStyle=orthogonalEdgeStyle;rounded=0;orthogonalLoop=1;jettySize=auto;html=1;fontSize=14;" edge="1" parent="1" source="bV21DThOPWdY1BmrYom6-4" target="bV21DThOPWdY1BmrYom6-9">
          <mxGeometry relative="1" as="geometry" />
        </mxCell>
        <mxCell id="bV21DThOPWdY1BmrYom6-35" style="edgeStyle=orthogonalEdgeStyle;rounded=0;orthogonalLoop=1;jettySize=auto;html=1;fontSize=14;" edge="1" parent="1" source="bV21DThOPWdY1BmrYom6-4" target="bV21DThOPWdY1BmrYom6-8">
          <mxGeometry relative="1" as="geometry" />
        </mxCell>
        <mxCell id="bV21DThOPWdY1BmrYom6-4" value="interceptor" style="rounded=0;whiteSpace=wrap;html=1;fontSize=14;fillColor=#dae8fc;strokeColor=#6c8ebf;" vertex="1" parent="1">
          <mxGeometry x="60" y="280" width="80" height="40" as="geometry" />
        </mxCell>
        <mxCell id="bV21DThOPWdY1BmrYom6-5" value="logging" style="rounded=0;whiteSpace=wrap;html=1;fontSize=14;fillColor=#dae8fc;strokeColor=#6c8ebf;" vertex="1" parent="1">
          <mxGeometry x="600" y="120" width="80" height="40" as="geometry" />
        </mxCell>
        <mxCell id="bV21DThOPWdY1BmrYom6-68" style="edgeStyle=orthogonalEdgeStyle;rounded=0;orthogonalLoop=1;jettySize=auto;html=1;fontSize=14;" edge="1" parent="1" source="bV21DThOPWdY1BmrYom6-6" target="bV21DThOPWdY1BmrYom6-5">
          <mxGeometry relative="1" as="geometry" />
        </mxCell>
        <mxCell id="bV21DThOPWdY1BmrYom6-69" style="edgeStyle=orthogonalEdgeStyle;rounded=0;orthogonalLoop=1;jettySize=auto;html=1;fontSize=14;" edge="1" parent="1" source="bV21DThOPWdY1BmrYom6-6" target="bV21DThOPWdY1BmrYom6-13">
          <mxGeometry relative="1" as="geometry" />
        </mxCell>
        <mxCell id="bV21DThOPWdY1BmrYom6-70" style="edgeStyle=orthogonalEdgeStyle;rounded=0;orthogonalLoop=1;jettySize=auto;html=1;fontSize=14;" edge="1" parent="1" source="bV21DThOPWdY1BmrYom6-6" target="bV21DThOPWdY1BmrYom6-15">
          <mxGeometry relative="1" as="geometry" />
        </mxCell>
        <mxCell id="bV21DThOPWdY1BmrYom6-72" style="edgeStyle=orthogonalEdgeStyle;rounded=0;orthogonalLoop=1;jettySize=auto;html=1;fontSize=14;" edge="1" parent="1" source="bV21DThOPWdY1BmrYom6-6" target="bV21DThOPWdY1BmrYom6-71">
          <mxGeometry relative="1" as="geometry" />
        </mxCell>
        <mxCell id="bV21DThOPWdY1BmrYom6-6" value="quic" style="rounded=0;whiteSpace=wrap;html=1;fontSize=14;fillColor=#dae8fc;strokeColor=#6c8ebf;" vertex="1" parent="1">
          <mxGeometry x="730" y="540" width="80" height="40" as="geometry" />
        </mxCell>
        <mxCell id="bV21DThOPWdY1BmrYom6-7" value="randutil" style="rounded=0;whiteSpace=wrap;html=1;fontSize=14;fillColor=#dae8fc;strokeColor=#6c8ebf;" vertex="1" parent="1">
          <mxGeometry x="720" y="160" width="80" height="40" as="geometry" />
        </mxCell>
        <mxCell id="bV21DThOPWdY1BmrYom6-8" value="rtcp" style="rounded=0;whiteSpace=wrap;html=1;fontSize=14;fillColor=#dae8fc;strokeColor=#6c8ebf;" vertex="1" parent="1">
          <mxGeometry x="80" y="410" width="80" height="40" as="geometry" />
        </mxCell>
        <mxCell id="bV21DThOPWdY1BmrYom6-9" value="rtp" style="rounded=0;whiteSpace=wrap;html=1;fontSize=14;fillColor=#dae8fc;strokeColor=#6c8ebf;" vertex="1" parent="1">
          <mxGeometry x="-20" y="410" width="80" height="40" as="geometry" />
        </mxCell>
        <mxCell id="bV21DThOPWdY1BmrYom6-21" style="edgeStyle=orthogonalEdgeStyle;rounded=0;orthogonalLoop=1;jettySize=auto;html=1;fontSize=14;" edge="1" parent="1" source="bV21DThOPWdY1BmrYom6-10" target="bV21DThOPWdY1BmrYom6-5">
          <mxGeometry relative="1" as="geometry" />
        </mxCell>
        <mxCell id="bV21DThOPWdY1BmrYom6-22" style="edgeStyle=orthogonalEdgeStyle;rounded=0;orthogonalLoop=1;jettySize=auto;html=1;fontSize=14;" edge="1" parent="1" source="bV21DThOPWdY1BmrYom6-10" target="bV21DThOPWdY1BmrYom6-7">
          <mxGeometry relative="1" as="geometry" />
        </mxCell>
        <mxCell id="bV21DThOPWdY1BmrYom6-23" style="edgeStyle=orthogonalEdgeStyle;rounded=0;orthogonalLoop=1;jettySize=auto;html=1;fontSize=14;" edge="1" parent="1" source="bV21DThOPWdY1BmrYom6-10" target="bV21DThOPWdY1BmrYom6-13">
          <mxGeometry relative="1" as="geometry" />
        </mxCell>
        <mxCell id="bV21DThOPWdY1BmrYom6-24" style="edgeStyle=orthogonalEdgeStyle;rounded=0;orthogonalLoop=1;jettySize=auto;html=1;fontSize=14;" edge="1" parent="1" source="bV21DThOPWdY1BmrYom6-10" target="bV21DThOPWdY1BmrYom6-15">
          <mxGeometry relative="1" as="geometry" />
        </mxCell>
        <mxCell id="bV21DThOPWdY1BmrYom6-27" style="edgeStyle=orthogonalEdgeStyle;rounded=0;orthogonalLoop=1;jettySize=auto;html=1;fontSize=14;" edge="1" parent="1" source="bV21DThOPWdY1BmrYom6-10" target="bV21DThOPWdY1BmrYom6-25">
          <mxGeometry relative="1" as="geometry" />
        </mxCell>
        <mxCell id="bV21DThOPWdY1BmrYom6-28" style="edgeStyle=orthogonalEdgeStyle;rounded=0;orthogonalLoop=1;jettySize=auto;html=1;fontSize=14;" edge="1" parent="1" source="bV21DThOPWdY1BmrYom6-10" target="bV21DThOPWdY1BmrYom6-26">
          <mxGeometry relative="1" as="geometry" />
        </mxCell>
        <mxCell id="bV21DThOPWdY1BmrYom6-30" style="edgeStyle=orthogonalEdgeStyle;rounded=0;orthogonalLoop=1;jettySize=auto;html=1;fontSize=14;" edge="1" parent="1" source="bV21DThOPWdY1BmrYom6-10" target="bV21DThOPWdY1BmrYom6-29">
          <mxGeometry relative="1" as="geometry" />
        </mxCell>
        <mxCell id="bV21DThOPWdY1BmrYom6-10" value="sctp" style="rounded=0;whiteSpace=wrap;html=1;fontSize=14;fillColor=#dae8fc;strokeColor=#6c8ebf;" vertex="1" parent="1">
          <mxGeometry x="180" y="160" width="80" height="40" as="geometry" />
        </mxCell>
        <mxCell id="bV21DThOPWdY1BmrYom6-66" style="edgeStyle=orthogonalEdgeStyle;rounded=0;orthogonalLoop=1;jettySize=auto;html=1;fontSize=14;" edge="1" parent="1" source="bV21DThOPWdY1BmrYom6-11" target="bV21DThOPWdY1BmrYom6-7">
          <mxGeometry relative="1" as="geometry" />
        </mxCell>
        <mxCell id="bV21DThOPWdY1BmrYom6-67" style="edgeStyle=orthogonalEdgeStyle;rounded=0;orthogonalLoop=1;jettySize=auto;html=1;fontSize=14;" edge="1" parent="1" source="bV21DThOPWdY1BmrYom6-11" target="bV21DThOPWdY1BmrYom6-15">
          <mxGeometry relative="1" as="geometry" />
        </mxCell>
        <mxCell id="bV21DThOPWdY1BmrYom6-11" value="sdp" style="rounded=0;whiteSpace=wrap;html=1;fontSize=14;fillColor=#dae8fc;strokeColor=#6c8ebf;" vertex="1" parent="1">
          <mxGeometry x="630" y="480" width="80" height="40" as="geometry" />
        </mxCell>
        <mxCell id="bV21DThOPWdY1BmrYom6-12" value="srtp" style="rounded=0;whiteSpace=wrap;html=1;fontSize=14;fillColor=#dae8fc;strokeColor=#6c8ebf;" vertex="1" parent="1">
          <mxGeometry x="590" y="380" width="80" height="40" as="geometry" />
        </mxCell>
        <mxCell id="bV21DThOPWdY1BmrYom6-31" style="edgeStyle=orthogonalEdgeStyle;rounded=0;orthogonalLoop=1;jettySize=auto;html=1;fontSize=14;" edge="1" parent="1" source="bV21DThOPWdY1BmrYom6-13" target="bV21DThOPWdY1BmrYom6-5">
          <mxGeometry relative="1" as="geometry" />
        </mxCell>
        <mxCell id="bV21DThOPWdY1BmrYom6-32" style="edgeStyle=orthogonalEdgeStyle;rounded=0;orthogonalLoop=1;jettySize=auto;html=1;fontSize=14;" edge="1" parent="1" source="bV21DThOPWdY1BmrYom6-13" target="bV21DThOPWdY1BmrYom6-15">
          <mxGeometry relative="1" as="geometry" />
        </mxCell>
        <mxCell id="bV21DThOPWdY1BmrYom6-33" style="edgeStyle=orthogonalEdgeStyle;rounded=0;orthogonalLoop=1;jettySize=auto;html=1;fontSize=14;" edge="1" parent="1" source="bV21DThOPWdY1BmrYom6-13" target="bV21DThOPWdY1BmrYom6-16">
          <mxGeometry relative="1" as="geometry" />
        </mxCell>
        <mxCell id="bV21DThOPWdY1BmrYom6-13" value="transport" style="rounded=0;whiteSpace=wrap;html=1;fontSize=14;fillColor=#dae8fc;strokeColor=#6c8ebf;" vertex="1" parent="1">
          <mxGeometry x="480" y="50" width="80" height="40" as="geometry" />
        </mxCell>
        <mxCell id="bV21DThOPWdY1BmrYom6-14" value="agouti" style="rounded=0;whiteSpace=wrap;html=1;fontSize=14;fillColor=#ffe6cc;strokeColor=#d79b00;" vertex="1" parent="1">
          <mxGeometry x="70" y="520" width="80" height="40" as="geometry" />
        </mxCell>
        <mxCell id="bV21DThOPWdY1BmrYom6-15" value="testify" style="rounded=0;whiteSpace=wrap;html=1;fontSize=14;fillColor=#ffe6cc;strokeColor=#d79b00;" vertex="1" parent="1">
          <mxGeometry x="250" y="450" width="80" height="40" as="geometry" />
        </mxCell>
        <mxCell id="bV21DThOPWdY1BmrYom6-16" value="x/net" style="rounded=0;whiteSpace=wrap;html=1;fontSize=14;fillColor=#ffe6cc;strokeColor=#d79b00;" vertex="1" parent="1">
          <mxGeometry x="610" y="10" width="80" height="40" as="geometry" />
        </mxCell>
        <mxCell id="bV21DThOPWdY1BmrYom6-25" value="go-spew" style="rounded=0;whiteSpace=wrap;html=1;fontSize=14;fillColor=#ffe6cc;strokeColor=#d79b00;" vertex="1" parent="1">
          <mxGeometry x="200" y="585" width="80" height="40" as="geometry" />
        </mxCell>
        <mxCell id="bV21DThOPWdY1BmrYom6-26" value="pretty" style="rounded=0;whiteSpace=wrap;html=1;fontSize=14;fillColor=#ffe6cc;strokeColor=#d79b00;" vertex="1" parent="1">
          <mxGeometry x="310" y="585" width="80" height="40" as="geometry" />
        </mxCell>
        <mxCell id="bV21DThOPWdY1BmrYom6-29" value="check" style="rounded=0;whiteSpace=wrap;html=1;fontSize=14;fillColor=#ffe6cc;strokeColor=#d79b00;" vertex="1" parent="1">
          <mxGeometry x="414" y="590" width="80" height="40" as="geometry" />
        </mxCell>
        <mxCell id="bV21DThOPWdY1BmrYom6-48" style="edgeStyle=orthogonalEdgeStyle;rounded=0;orthogonalLoop=1;jettySize=auto;html=1;fontSize=14;" edge="1" parent="1" source="bV21DThOPWdY1BmrYom6-39" target="bV21DThOPWdY1BmrYom6-5">
          <mxGeometry relative="1" as="geometry" />
        </mxCell>
        <mxCell id="bV21DThOPWdY1BmrYom6-49" style="edgeStyle=orthogonalEdgeStyle;rounded=0;orthogonalLoop=1;jettySize=auto;html=1;fontSize=14;" edge="1" parent="1" source="bV21DThOPWdY1BmrYom6-39" target="bV21DThOPWdY1BmrYom6-13">
          <mxGeometry relative="1" as="geometry" />
        </mxCell>
        <mxCell id="bV21DThOPWdY1BmrYom6-50" style="edgeStyle=orthogonalEdgeStyle;rounded=0;orthogonalLoop=1;jettySize=auto;html=1;fontSize=14;" edge="1" parent="1" source="bV21DThOPWdY1BmrYom6-39" target="bV21DThOPWdY1BmrYom6-16">
          <mxGeometry relative="1" as="geometry" />
        </mxCell>
        <mxCell id="bV21DThOPWdY1BmrYom6-39" value="mdns" style="rounded=0;whiteSpace=wrap;html=1;fontSize=14;fillColor=#dae8fc;strokeColor=#6c8ebf;" vertex="1" parent="1">
          <mxGeometry x="580" y="300" width="80" height="40" as="geometry" />
        </mxCell>
        <mxCell id="bV21DThOPWdY1BmrYom6-51" style="edgeStyle=orthogonalEdgeStyle;rounded=0;orthogonalLoop=1;jettySize=auto;html=1;fontSize=14;" edge="1" parent="1" source="bV21DThOPWdY1BmrYom6-41" target="bV21DThOPWdY1BmrYom6-5">
          <mxGeometry relative="1" as="geometry" />
        </mxCell>
        <mxCell id="bV21DThOPWdY1BmrYom6-41" value="stun" style="rounded=0;whiteSpace=wrap;html=1;fontSize=14;fillColor=#dae8fc;strokeColor=#6c8ebf;" vertex="1" parent="1">
          <mxGeometry x="680" y="260" width="80" height="40" as="geometry" />
        </mxCell>
        <mxCell id="bV21DThOPWdY1BmrYom6-52" style="edgeStyle=orthogonalEdgeStyle;rounded=0;orthogonalLoop=1;jettySize=auto;html=1;fontSize=14;" edge="1" parent="1" source="bV21DThOPWdY1BmrYom6-44" target="bV21DThOPWdY1BmrYom6-5">
          <mxGeometry relative="1" as="geometry" />
        </mxCell>
        <mxCell id="bV21DThOPWdY1BmrYom6-53" style="edgeStyle=orthogonalEdgeStyle;rounded=0;orthogonalLoop=1;jettySize=auto;html=1;fontSize=14;" edge="1" parent="1" source="bV21DThOPWdY1BmrYom6-44" target="bV21DThOPWdY1BmrYom6-7">
          <mxGeometry relative="1" as="geometry" />
        </mxCell>
        <mxCell id="bV21DThOPWdY1BmrYom6-54" style="edgeStyle=orthogonalEdgeStyle;rounded=0;orthogonalLoop=1;jettySize=auto;html=1;fontSize=14;" edge="1" parent="1" source="bV21DThOPWdY1BmrYom6-44" target="bV21DThOPWdY1BmrYom6-41">
          <mxGeometry relative="1" as="geometry" />
        </mxCell>
        <mxCell id="bV21DThOPWdY1BmrYom6-55" style="edgeStyle=orthogonalEdgeStyle;rounded=0;orthogonalLoop=1;jettySize=auto;html=1;fontSize=14;" edge="1" parent="1" source="bV21DThOPWdY1BmrYom6-44" target="bV21DThOPWdY1BmrYom6-13">
          <mxGeometry relative="1" as="geometry" />
        </mxCell>
        <mxCell id="bV21DThOPWdY1BmrYom6-56" style="edgeStyle=orthogonalEdgeStyle;rounded=0;orthogonalLoop=1;jettySize=auto;html=1;fontSize=14;" edge="1" parent="1" source="bV21DThOPWdY1BmrYom6-44" target="bV21DThOPWdY1BmrYom6-15">
          <mxGeometry relative="1" as="geometry" />
        </mxCell>
        <mxCell id="bV21DThOPWdY1BmrYom6-44" value="turn" style="rounded=0;whiteSpace=wrap;html=1;fontSize=14;fillColor=#dae8fc;strokeColor=#6c8ebf;" vertex="1" parent="1">
          <mxGeometry x="800" y="340" width="80" height="40" as="geometry" />
        </mxCell>
        <mxCell id="bV21DThOPWdY1BmrYom6-59" value="udp" style="rounded=0;whiteSpace=wrap;html=1;fontSize=14;fillColor=#dae8fc;strokeColor=#6c8ebf;" vertex="1" parent="1">
          <mxGeometry x="780" y="420" width="80" height="40" as="geometry" />
        </mxCell>
        <mxCell id="bV21DThOPWdY1BmrYom6-62" value="x/xerrors" style="rounded=0;whiteSpace=wrap;html=1;fontSize=14;fillColor=#ffe6cc;strokeColor=#d79b00;" vertex="1" parent="1">
          <mxGeometry x="494" y="650" width="80" height="40" as="geometry" />
        </mxCell>
        <mxCell id="bV21DThOPWdY1BmrYom6-63" value="x/crypto" style="rounded=0;whiteSpace=wrap;html=1;fontSize=14;fillColor=#ffe6cc;strokeColor=#d79b00;" vertex="1" parent="1">
          <mxGeometry x="560" y="585" width="80" height="40" as="geometry" />
        </mxCell>
        <mxCell id="bV21DThOPWdY1BmrYom6-71" value="quic-go" style="rounded=0;whiteSpace=wrap;html=1;fontSize=14;fillColor=#ffe6cc;strokeColor=#d79b00;" vertex="1" parent="1">
          <mxGeometry x="730" y="630" width="80" height="40" as="geometry" />
        </mxCell>
      </root>
    </mxGraphModel>
  </diagram>
</mxfile>
